<svg width="33" height="37" viewBox="0 0 33 37" fill="none" xmlns="http://www.w3.org/2000/svg">
<path d="M32.9714 15.7198C32.9481 14.9616 32.9053 14.2033 32.8587 13.4489C32.7109 11.1391 32.4854 8.89157 31.7466 6.99396C30.6189 4.08145 29.0441 2.79824 27.3176 2.27717C25.945 1.8611 24.549 1.70167 23.1608 1.55391C20.7111 1.29726 18.2613 1.00173 15.8077 0.970626C12.7825 0.931741 9.75726 1.09506 6.73203 1.27782C5.58882 1.34781 4.47282 1.89999 3.42683 2.91878C2.11252 4.202 1.3115 6.3368 1.08208 9.21043C0.669902 14.3705 0.798223 19.4878 1.57592 24.504C2.02698 27.4049 2.89411 29.6019 4.23563 31.0484C5.41772 32.3278 6.70481 32.8838 8.00745 33.0083C10.4144 33.2416 12.8292 33.3543 15.2361 33.3038C17.9114 33.2455 20.5866 32.9422 23.258 32.7516C23.8141 32.7127 24.3818 32.8022 24.9262 32.6194C25.4628 32.4366 25.8827 32.6272 26.256 33.3932C26.3844 33.6538 26.5166 33.9026 26.6604 34.1204C27.0571 34.7231 27.4342 35.4114 27.8697 35.8702C28.2469 36.2707 28.4958 35.9208 28.523 35.0536C28.558 33.9921 28.5308 32.9227 28.5308 31.83C29.0091 31.5384 29.4251 31.3245 29.8295 31.0251C31 30.1502 31.9449 28.7114 32.3648 26.2383C32.9442 22.832 33.0842 19.3012 32.9636 15.7237L32.9714 15.7198Z" fill="#F7B11D"/>
<path d="M27.6487 29.3651C25.0113 29.3651 22.4056 28.7902 19.8315 27.6403C17.2574 26.4904 14.9154 24.8605 12.8055 22.7506C10.6956 20.6407 9.06567 18.2987 7.91577 15.7246C6.76587 13.1505 6.19092 10.5448 6.19092 7.90737C6.19092 7.52758 6.31751 7.2111 6.5707 6.95791C6.82389 6.70472 7.14038 6.57812 7.52016 6.57812H12.6472C12.9426 6.57812 13.2064 6.67835 13.4385 6.87879C13.6705 7.07923 13.8077 7.31659 13.8499 7.59088L14.6727 12.0217C14.7149 12.3593 14.7044 12.6441 14.6411 12.8762C14.5778 13.1083 14.4618 13.3087 14.293 13.4775L11.223 16.5791C11.645 17.3598 12.1461 18.114 12.7264 18.842C13.3066 19.5699 13.9448 20.2714 14.6411 20.9466C15.2952 21.6007 15.9809 22.2073 16.6983 22.7664C17.4156 23.3255 18.1752 23.8372 18.977 24.3014L21.9519 21.3264C22.1418 21.1365 22.3897 20.9941 22.6957 20.8991C23.0016 20.8042 23.3023 20.7778 23.5977 20.82L27.9652 21.7062C28.2606 21.7906 28.5032 21.9435 28.6931 22.1651C28.883 22.3866 28.9779 22.6345 28.9779 22.9088V28.0359C28.9779 28.4157 28.8513 28.7322 28.5981 28.9854C28.345 29.2385 28.0285 29.3651 27.6487 29.3651ZM10.052 14.1738L12.1409 12.085L11.5712 9.11001H8.7861C8.8916 9.97508 9.03929 10.8296 9.22919 11.6736C9.41908 12.5175 9.69337 13.3509 10.052 14.1738ZM21.3823 25.447C22.2051 25.8015 23.0403 26.0934 23.8879 26.3228C24.7354 26.5521 25.5881 26.7012 26.446 26.7699V23.9849L23.4711 23.3519L21.3823 25.447ZM10.052 14.1738C9.69337 13.3509 9.41908 12.5175 9.22919 11.6736C9.03929 10.8296 8.8916 9.97508 8.7861 9.11001H11.5712L12.1409 12.085L10.052 14.1738ZM21.3823 25.4407L23.4711 23.3519L26.446 23.9849V26.7699C25.581 26.7066 24.7265 26.559 23.8825 26.3269C23.0385 26.0948 22.2051 25.7994 21.3823 25.4407Z" fill="#0D6A68"/>
</svg>
