<svg width="33" height="37" viewBox="0 0 33 37" fill="none" xmlns="http://www.w3.org/2000/svg">
<path d="M32.6224 15.7199C32.5991 14.9616 32.5563 14.2034 32.5096 13.449C32.3619 11.1393 32.1364 8.89172 31.3976 6.99414C30.2699 4.08166 28.6951 2.79846 26.9686 2.2774C25.596 1.86133 24.2001 1.70191 22.8119 1.55414C20.3622 1.2975 17.9125 1.00198 15.4589 0.97087C12.4337 0.931986 9.40852 1.0953 6.38332 1.27806C5.24013 1.34805 4.12415 1.90022 3.07816 2.919C1.76388 4.2022 0.962861 6.33698 0.733444 9.21058C0.321271 14.3706 0.449591 19.4878 1.22728 24.504C1.67833 27.4048 2.54545 29.6018 3.88696 31.0483C5.06904 32.3276 6.35611 32.8837 7.65873 33.0081C10.0657 33.2414 12.4804 33.3542 14.8873 33.3036C17.5625 33.2453 20.2378 32.942 22.9091 32.7515C23.4652 32.7126 24.0329 32.802 24.5773 32.6193C25.1139 32.4365 25.5338 32.627 25.9071 33.3931C26.0354 33.6536 26.1676 33.9025 26.3115 34.1202C26.7081 34.7229 27.0853 35.4112 27.5208 35.87C27.898 36.2706 28.1468 35.9206 28.174 35.0535C28.209 33.9919 28.1818 32.9226 28.1818 31.8299C28.6601 31.5383 29.0762 31.3244 29.4806 31.025C30.651 30.1501 31.5959 28.7113 32.0158 26.2383C32.5952 22.8319 32.7352 19.3012 32.6146 15.7238L32.6224 15.7199Z" fill="#F7B11D"/>
<path d="M17.2354 7.48975C11.4558 7.48975 6.75349 12.192 6.75349 17.9716C6.75349 19.7764 7.2197 21.551 8.10383 23.1169L6.77035 27.8748C6.7266 28.0311 6.76898 28.1988 6.882 28.315C6.96905 28.4048 7.08754 28.4535 7.20922 28.4535C7.24568 28.4535 7.28259 28.449 7.3186 28.4403L12.2843 27.2103C13.8005 28.0242 15.5082 28.4535 17.2354 28.4535C23.015 28.4535 27.7173 23.7513 27.7173 17.9716C27.7173 12.192 23.015 7.48975 17.2354 7.48975ZM22.5082 21.6704C22.284 22.2911 21.2085 22.8576 20.6917 22.9337C20.2277 23.0016 19.6408 23.0308 18.9963 22.8284C18.6058 22.7054 18.1045 22.5422 17.4623 22.2683C14.763 21.1171 13.0002 18.4333 12.8653 18.256C12.7309 18.0787 11.7666 16.8154 11.7666 15.5079C11.7666 14.2004 12.4616 13.5574 12.7086 13.2912C12.9556 13.0251 13.2468 12.9586 13.4264 12.9586C13.6059 12.9586 13.785 12.9608 13.9422 12.9681C14.1077 12.9763 14.3296 12.9057 14.5479 13.4243C14.7721 13.9566 15.3104 15.2641 15.3769 15.3977C15.4443 15.5307 15.489 15.6861 15.3997 15.8634C15.3104 16.0407 15.2657 16.1514 15.1308 16.3068C14.9959 16.4623 14.8482 16.6532 14.727 16.7726C14.5921 16.9052 14.4522 17.0488 14.609 17.3149C14.7658 17.5811 15.3058 18.4511 16.1061 19.1556C17.1338 20.0607 18.001 20.3415 18.2699 20.4745C18.5388 20.6076 18.696 20.5853 18.8528 20.408C19.0096 20.2303 19.5255 19.6319 19.7046 19.3662C19.8837 19.1005 20.0632 19.1442 20.3102 19.2331C20.5572 19.3215 21.8802 19.9641 22.1491 20.0972C22.418 20.2303 22.5976 20.2968 22.665 20.4075C22.7325 20.5178 22.7325 21.0501 22.5082 21.6704Z" fill="#0D6A68"/>
</svg>
