<svg width="21" height="24" viewBox="0 0 21 24" fill="none" xmlns="http://www.w3.org/2000/svg">
<path d="M20.752 10.4479C20.737 9.96118 20.7095 9.47449 20.6796 8.9903C20.5848 7.50777 20.44 6.06517 19.9658 4.84719C19.242 2.97781 18.2312 2.15418 17.1231 1.81973C16.2421 1.55268 15.3461 1.45035 14.4551 1.35551C12.8827 1.19078 11.3103 1.0011 9.73549 0.981129C7.79375 0.95617 5.85202 1.061 3.91028 1.1783C3.17651 1.22323 2.46022 1.57764 1.78885 2.23155C0.945263 3.05518 0.431127 4.4254 0.283874 6.26983C0.019319 9.58182 0.101681 12.8664 0.600842 16.086C0.890355 17.9479 1.44692 19.358 2.30797 20.2865C3.0667 21.1076 3.89281 21.4645 4.7289 21.5444C6.27381 21.6942 7.8237 21.7665 9.36861 21.7341C11.0857 21.6967 12.8028 21.502 14.5175 21.3797C14.8744 21.3547 15.2387 21.4121 15.5882 21.2948C15.9326 21.1775 16.2021 21.2998 16.4417 21.7915C16.5241 21.9587 16.6089 22.1185 16.7013 22.2582C16.9559 22.6451 17.1979 23.0868 17.4775 23.3814C17.7196 23.6384 17.8793 23.4138 17.8968 22.8572C17.9192 22.1759 17.9018 21.4895 17.9018 20.7882C18.2088 20.601 18.4758 20.4637 18.7354 20.2715C19.4866 19.71 20.0931 18.7865 20.3626 17.1991C20.7345 15.0128 20.8244 12.7465 20.747 10.4504L20.752 10.4479Z" fill="#F7B11D"/>
<g clip-path="url(#clip0_319_841)">
<path d="M8.10107 22.3456L11.619 22.3637C11.619 22.3637 11.6443 17.4076 11.6645 13.3886L14.2755 13.4028L14.6141 9.81429L11.8174 9.80012L11.8249 8.36421C11.8287 7.6643 12.286 7.50447 12.6069 7.50576C12.9277 7.50705 14.5812 7.51607 14.5812 7.51607L14.5964 4.4406L11.8793 4.41353C8.86277 4.39806 8.16549 6.68855 8.15791 8.15669L8.15033 9.77949L6.40587 9.77047L6.38818 13.3602L8.1478 13.3693C8.12759 17.4372 8.10233 22.3443 8.10233 22.3443L8.10107 22.3456Z" fill="#0D6A68"/>
</g>
<defs>
<clipPath id="clip0_319_841">
<rect width="8.22714" height="17.9501" fill="white" transform="translate(6.38672 4.41357)"/>
</clipPath>
</defs>
</svg>
