<svg width="127" height="59" viewBox="0 0 127 59" fill="none" xmlns="http://www.w3.org/2000/svg">
<path d="M126.843 24.8286C126.744 23.5524 126.585 22.2762 126.396 21.0057C125.817 17.1228 124.917 13.3399 122.008 10.1423C117.548 5.24016 111.33 3.08461 104.516 2.20526C99.0922 1.50577 93.5824 1.2374 88.0957 0.991868C78.4229 0.557903 68.7402 0.0639815 59.0608 0.00973587C47.118 -0.0559299 35.1685 0.221008 23.2256 0.526497C18.7052 0.643554 14.2974 1.57144 10.1675 3.28732C4.97206 5.44572 1.82171 9.03736 0.911679 13.8766C-0.719754 22.5588 -0.216757 31.1724 2.86741 39.6062C4.65107 44.4855 8.07939 48.1827 13.3675 50.6152C18.0401 52.7651 23.1164 53.7015 28.2655 53.9128C37.7728 54.3039 47.3033 54.4981 56.8172 54.4096C67.3835 54.3125 77.9431 53.8043 88.5027 53.4788C90.7034 53.4103 92.9404 53.5673 95.0913 53.2533C97.2026 52.945 98.8671 53.2676 100.346 54.5552C100.846 54.9892 101.372 55.4117 101.941 55.78C103.507 56.7964 104.996 57.9498 106.717 58.7235C108.209 59.3945 109.189 58.8092 109.301 57.3474C109.44 55.5602 109.334 53.7586 109.334 51.9257C111.22 51.4318 112.872 51.0778 114.46 50.5696C119.09 49.0964 122.812 46.6753 124.477 42.5155C126.77 36.7854 127.313 30.847 126.846 24.8257L126.843 24.8286Z" fill="#F7B11D"/>
</svg>
