<svg width="455" height="297" viewBox="0 0 455 297" fill="none" xmlns="http://www.w3.org/2000/svg">
<g clip-path="url(#clip0_185_3676)">
<path d="M11.9053 98.6551L8.28134 76.9986C53.9692 69.3492 101.873 70.8286 154.72 81.5298C197.657 90.2207 243.389 105.011 294.532 126.744C298.512 128.434 302.517 130.165 306.545 131.948C307.196 79.0861 330.812 25.4283 371.055 -13.5539L386.332 2.21978C347.68 39.6631 326.132 91.9995 328.689 142.22C373.034 163.861 416.94 192.669 444.359 236.814C455.753 255.16 456.967 272.432 447.697 284.2C434.744 300.643 411.252 296.267 395.07 287.524C369.821 273.885 348.171 252.891 332.462 226.818C319.48 205.271 311.115 181.26 307.96 156.685C300.572 153.272 293.203 150.043 285.943 146.955C177.479 100.855 90.3992 85.5135 11.9053 98.6551ZM332.371 168.691C342.019 211.034 369.003 248.475 405.51 268.197C414.635 273.129 426.482 275.646 430.452 270.602C434.187 265.862 430.229 255.67 425.707 248.384C403.71 212.955 368.984 188 332.368 168.687L332.371 168.691Z" fill="#0D6A68"/>
</g>
<defs>
<clipPath id="clip0_185_3676">
<rect width="455" height="297" fill="white"/>
</clipPath>
</defs>
</svg>
