<svg width="181" height="674" viewBox="0 0 181 674" fill="none" xmlns="http://www.w3.org/2000/svg">
<g clip-path="url(#clip0_185_3666)">
<path d="M158.137 -4.35849L185.632 -0.0206211C176.485 57.9852 155.472 114.991 121.387 174.236C93.6978 222.374 57.5524 271.423 10.887 324.19C7.25669 328.296 3.56685 332.418 -0.193656 336.545C63.1054 358.552 118.141 408.492 148.855 472.531L123.755 484.566C94.2527 423.058 39.9757 376.135 -21.4354 359.046C-65.2613 403.678 -117.528 444.903 -181.616 460.147C-208.25 466.481 -229.506 461.006 -239.932 445.135C-254.503 422.957 -239.81 396.468 -222.8 380.522C-196.263 355.638 -162.327 338.037 -124.67 329.617C-93.5492 322.658 -61.3209 322.241 -30.5058 328.315C-23.4352 320.801 -16.5945 313.238 -9.96544 305.748C89.0131 193.842 142.423 95.298 158.137 -4.35849ZM-54.7425 352.846C-109.529 347.445 -165.382 364.857 -203.753 400.835C-213.346 409.826 -221.13 423.06 -216.658 429.859C-212.459 436.253 -198.615 435.585 -188.039 433.074C-136.608 420.85 -92.6597 389.115 -54.7361 352.844L-54.7425 352.846Z" fill="#0D6A68"/>
</g>
<defs>
<clipPath id="clip0_185_3666">
<rect width="181" height="674" fill="white"/>
</clipPath>
</defs>
</svg>
