<svg width="27" height="26" viewBox="0 0 27 26" fill="none" xmlns="http://www.w3.org/2000/svg">
<path d="M12.1301 10.7243C9.8082 9.85921 7.48631 8.98865 5.16441 8.11809L0.947747 6.53576C0.827271 6.49195 0.701317 6.46458 0.569889 6.4372L0.427503 6.40982C0.323455 6.38792 0.219425 6.40983 0.137282 6.47553C0.0551397 6.54123 0.00585938 6.63978 0.00585938 6.74381V21.1929C0.00585938 21.3462 0.109885 21.4831 0.257742 21.5214L0.361791 21.5488C0.411077 21.5598 0.460373 21.5707 0.509659 21.5926L12.2341 25.9783C12.2725 25.9947 12.3108 26.0002 12.3546 26.0002C12.4204 26.0002 12.4806 25.9837 12.5353 25.9454C12.623 25.8907 12.6832 25.7921 12.6942 25.6881L12.7106 25.5457C12.7215 25.4526 12.727 25.3815 12.727 25.3103V22.3646C12.727 18.7674 12.727 15.1702 12.738 11.573C12.738 11.0309 12.4313 10.8448 12.1301 10.7298V10.7243ZM6.43489 20.6837L6.19942 20.5961C5.4218 20.3059 4.66606 20.0212 3.91583 19.731C3.91583 19.731 3.91583 19.7201 3.91583 19.7037C3.90488 19.4025 3.9049 19.1069 3.9049 18.7838L4.18415 18.8879C4.95082 19.1726 5.68464 19.4409 6.42393 19.7475C6.44036 20.0541 6.44037 20.3607 6.43489 20.6892V20.6837Z" fill="#0D6A68"/>
<path d="M16.7626 8.94457L17.6169 8.62153C17.7154 8.5832 17.814 8.5394 17.929 8.47918L18.1207 8.3861C18.2411 8.33134 18.3178 8.20541 18.3178 8.06853C18.3178 7.93165 18.2302 7.8112 18.1097 7.76192L14.1121 6.10293L14.1614 6.08103C14.8788 5.77442 15.5523 5.48423 16.2369 5.21594C16.3354 5.17762 16.5162 5.18857 16.6257 5.23784L17.0911 5.43495C18.0823 5.85654 19.1064 6.28909 20.0702 6.78186C20.8533 7.18155 21.5652 7.20345 22.3757 6.85303C23.2245 6.49167 24.0788 6.17411 24.9823 5.84559C25.3657 5.70871 25.749 5.56636 26.1378 5.41853C26.2638 5.36925 26.3514 5.25427 26.3569 5.12286C26.3678 4.99146 26.2966 4.86005 26.1761 4.79983L26.0556 4.73412C25.9735 4.69032 25.9133 4.65747 25.853 4.63557L24.5388 4.1428C20.9026 2.77947 17.2718 1.42162 13.6302 0.0692369C13.3126 -0.0512179 12.9347 0.00353384 12.6828 0.0966126C11.2097 0.638659 9.74212 1.18618 8.2745 1.73918C7.3545 2.08412 6.43452 2.42906 5.51452 2.76852C4.30976 3.21749 3.0995 3.66098 1.89474 4.10447L0.224509 4.7177C0.0930804 4.76697 0 4.8929 0 5.04074V5.13929C0 5.29807 0.109518 5.44043 0.268328 5.47328L0.361413 5.48971C0.39427 5.48971 0.427123 5.50065 0.45998 5.51161L3.22 6.54642C6.34142 7.71812 9.45735 8.88982 12.5843 10.0451C12.765 10.1108 12.9731 10.1436 13.1812 10.1436C13.3893 10.1436 13.5809 10.1108 13.7562 10.0506C14.7638 9.70015 15.7769 9.31688 16.7516 8.94457H16.7626Z" fill="#0D6A68"/>
<path d="M26.3784 9.9245V6.74888C26.3784 6.56272 26.2251 6.40941 26.0389 6.40941H25.9622C25.8965 6.40394 25.8143 6.39846 25.7158 6.43131L25.0422 6.68317C23.8101 7.13762 22.5834 7.59754 21.3622 8.07388C21.0884 8.18338 20.8967 8.55022 20.8912 8.82398C20.8803 9.44816 20.8803 10.0723 20.8803 10.6965C20.8803 11.1783 20.8803 11.6547 20.8748 12.1365C20.8748 12.1748 20.8639 12.2241 20.8529 12.2569C20.1081 12.5526 19.3524 12.8373 18.5693 13.1275L18.3667 13.2042V9.67812C18.3667 9.56861 18.312 9.45911 18.2189 9.39888C18.1258 9.33318 18.0108 9.32223 17.9067 9.36056L16.8936 9.74382C16.0174 10.0778 15.1741 10.3954 14.3253 10.6965C13.8544 10.8608 13.6572 11.151 13.6572 11.6547C13.6682 15.0274 13.6682 18.3947 13.6682 21.7674V25.1401C13.6682 25.2442 13.6682 25.3482 13.6791 25.4687L13.6901 25.6384C13.6901 25.7424 13.7503 25.841 13.8325 25.9012C13.8927 25.9395 13.9584 25.9614 14.0296 25.9614C14.0625 25.9614 14.0953 25.9614 14.1337 25.945L14.3143 25.8902C14.4348 25.8519 14.5498 25.8191 14.6539 25.7807L17.4358 24.735C20.2067 23.6947 22.9722 22.6544 25.7486 21.6251C26.2141 21.4498 26.4058 21.1706 26.4058 20.6614C26.3948 17.0806 26.3948 13.4943 26.4003 9.91355L26.3784 9.9245Z" fill="#0D6A68"/>
</svg>
