<svg width="22" height="24" viewBox="0 0 22 24" fill="none" xmlns="http://www.w3.org/2000/svg">
<path d="M21.3882 10.4479C21.3732 9.96118 21.3458 9.47449 21.3158 8.9903C21.221 7.50777 21.0762 6.06517 20.602 4.84719C19.8782 2.97781 18.8674 2.15418 17.7593 1.81973C16.8783 1.55268 15.9823 1.45035 15.0913 1.35551C13.5189 1.19078 11.9466 1.0011 10.3717 0.981129C8.42998 0.95617 6.48825 1.061 4.54651 1.1783C3.81274 1.22323 3.09645 1.57764 2.42508 2.23155C1.58149 3.05518 1.06736 4.4254 0.920105 6.26983C0.655549 9.58182 0.737911 12.8664 1.23707 16.086C1.52659 17.9479 2.08315 19.358 2.9442 20.2865C3.70293 21.1076 4.52904 21.4645 5.36513 21.5444C6.91004 21.6942 8.45993 21.7665 10.0048 21.7341C11.722 21.6967 13.4391 21.502 15.1537 21.3797C15.5106 21.3547 15.875 21.4121 16.2244 21.2948C16.5688 21.1775 16.8384 21.2998 17.078 21.7915C17.1603 21.9587 17.2452 22.1185 17.3375 22.2582C17.5921 22.6451 17.8342 23.0868 18.1137 23.3814C18.3558 23.6384 18.5155 23.4138 18.533 22.8572C18.5555 22.1759 18.538 21.4895 18.538 20.7882C18.845 20.601 19.112 20.4637 19.3716 20.2715C20.1228 19.71 20.7293 18.7865 20.9989 17.1991C21.3707 15.0128 21.4606 12.7465 21.3832 10.4504L21.3882 10.4479Z" fill="#F7B11D"/>
<g clip-path="url(#clip0_319_847)">
<path d="M14.4008 17.9668H7.56688C6.15134 17.9668 5 16.8498 5 15.4764V8.49033C5 7.11692 6.15134 6 7.56688 6H14.4008C15.8164 6 16.9677 7.11692 16.9677 8.49033V15.4764C16.9677 16.8498 15.8164 17.9668 14.4008 17.9668ZM7.56688 7.02594C6.72068 7.02594 6.03338 7.68313 6.03338 8.49033V15.4764C6.03338 16.2836 6.72165 16.9408 7.56688 16.9408H14.4008C15.2461 16.9408 15.9343 16.2836 15.9343 15.4764V8.49033C15.9343 7.68313 15.2461 7.02594 14.4008 7.02594H7.56688Z" fill="#0D6A68"/>
<path d="M10.9839 15.0892C9.25931 15.0892 7.85547 13.6955 7.85547 11.9833C7.85547 10.2712 9.25931 8.87744 10.9839 8.87744C12.7085 8.87744 14.1123 10.2702 14.1123 11.9833C14.1123 13.6965 12.7094 15.0892 10.9839 15.0892ZM10.9839 9.90338C9.82864 9.90338 8.88885 10.8364 8.88885 11.9833C8.88885 13.1303 9.82864 14.0633 10.9839 14.0633C12.1391 14.0633 13.0789 13.1303 13.0789 11.9833C13.0789 10.8364 12.1391 9.90338 10.9839 9.90338Z" fill="#0D6A68"/>
<path d="M15.0727 8.72065C15.0727 9.12231 14.7451 9.44752 14.3405 9.44752C13.936 9.44752 13.6094 9.12231 13.6094 8.72065C13.6094 8.31898 13.9369 7.99377 14.3405 7.99377C14.7441 7.99377 15.0727 8.31898 15.0727 8.72065Z" fill="#0D6A68"/>
</g>
<defs>
<clipPath id="clip0_319_847">
<rect width="11.9668" height="11.9668" fill="white" transform="translate(5 6)"/>
</clipPath>
</defs>
</svg>
