<svg width="36" height="39" viewBox="0 0 36 39" fill="none" xmlns="http://www.w3.org/2000/svg">
<g clip-path="url(#clip0_346_4253)">
<path d="M35.9566 16.4112C35.9276 15.5674 35.8841 14.7237 35.8302 13.8841C35.6666 11.318 35.4118 8.81571 34.5874 6.70438C33.3239 3.46329 31.5591 2.03927 29.6286 1.45691C28.0917 0.993896 26.5299 0.816922 24.9743 0.654354C22.2318 0.368315 19.4873 0.0411203 16.7428 0.00613719C13.3561 -0.0370772 9.96946 0.14607 6.58488 0.347737C5.30271 0.423877 4.05369 1.03917 2.88338 2.17303C1.41065 3.59911 0.515833 5.97179 0.258986 9.17171C-0.204996 14.911 -0.0620729 20.603 0.812035 26.1817C1.31744 29.4064 2.28891 31.8511 3.78856 33.4603C5.11215 34.8822 6.55174 35.4996 8.01204 35.6395C10.7069 35.8988 13.4079 36.0264 16.1048 35.9667C19.1 35.9009 22.0931 35.5654 25.0861 35.3514C25.7096 35.3062 26.3455 35.409 26.9545 35.2033C27.5531 34.9995 28.0254 35.2136 28.4438 36.0634C28.5847 36.3515 28.7359 36.6293 28.8954 36.8722C29.3386 37.543 29.7612 38.3065 30.2479 38.8189C30.6705 39.2634 30.9481 38.8765 30.9812 37.9093C31.0206 36.7281 30.9916 35.5366 30.9916 34.3266C31.526 34.0015 31.9941 33.7648 32.4456 33.4315C33.7589 32.4561 34.8132 30.8571 35.2855 28.1079C35.9359 24.3194 36.0891 20.3931 35.9566 16.4132V16.4112Z" fill="#F7B11D"/>
<path d="M17.6401 30.3334C15.3687 30.3334 13.5151 29.9806 12.0794 29.2749C10.6437 28.5693 9.92585 27.6582 9.92585 26.5418C9.92585 26.0362 10.0812 25.5675 10.3919 25.1357C10.7026 24.7039 11.1366 24.33 11.6937 24.014L13.7187 25.8782C13.5259 25.9625 13.3169 26.0573 13.0919 26.1626C12.8669 26.2679 12.6901 26.3943 12.5616 26.5418C12.8401 26.8788 13.483 27.1737 14.4901 27.4265C15.4973 27.6793 16.5473 27.8057 17.6401 27.8057C18.733 27.8057 19.7884 27.6793 20.8062 27.4265C21.8241 27.1737 22.4723 26.8788 22.7509 26.5418C22.6009 26.3733 22.408 26.2363 22.1723 26.131C21.9366 26.0257 21.7116 25.9309 21.4973 25.8466L23.4901 23.9508C24.0901 24.2878 24.5509 24.6723 24.8723 25.1041C25.1937 25.5359 25.3544 26.0152 25.3544 26.5418C25.3544 27.6582 24.6366 28.5693 23.2009 29.2749C21.7651 29.9806 19.9116 30.3334 17.6401 30.3334ZM17.6723 23.3821C19.7937 21.8443 21.3901 20.3013 22.4616 18.7531C23.533 17.2048 24.0687 15.6513 24.0687 14.0925C24.0687 11.9439 23.3723 10.3219 21.9794 9.2265C20.5866 8.13113 19.1401 7.58344 17.6401 7.58344C16.1401 7.58344 14.6937 8.13113 13.3009 9.2265C11.908 10.3219 11.2116 11.9439 11.2116 14.0925C11.2116 15.5038 11.7366 16.9731 12.7866 18.5003C13.8366 20.0275 15.4651 21.6547 17.6723 23.3821ZM17.6401 26.5418C14.6187 24.351 12.3634 22.2235 10.8741 20.1591C9.38478 18.0948 8.64014 16.0726 8.64014 14.0925C8.64014 12.5969 8.91335 11.2856 9.45978 10.1586C10.0062 9.03165 10.708 8.089 11.5651 7.33066C12.4223 6.57233 13.3866 6.00358 14.458 5.62441C15.5294 5.24525 16.5901 5.05566 17.6401 5.05566C18.6901 5.05566 19.7509 5.24525 20.8223 5.62441C21.8937 6.00358 22.858 6.57233 23.7151 7.33066C24.5723 8.089 25.2741 9.03165 25.8205 10.1586C26.3669 11.2856 26.6401 12.5969 26.6401 14.0925C26.6401 16.0726 25.8955 18.0948 24.4062 20.1591C22.9169 22.2235 20.6616 24.351 17.6401 26.5418ZM17.6401 16.4307C18.3473 16.4307 18.9526 16.1832 19.4562 15.6881C19.9598 15.1931 20.2116 14.598 20.2116 13.9029C20.2116 13.2077 19.9598 12.6127 19.4562 12.1176C18.9526 11.6226 18.3473 11.3751 17.6401 11.3751C16.933 11.3751 16.3276 11.6226 15.8241 12.1176C15.3205 12.6127 15.0687 13.2077 15.0687 13.9029C15.0687 14.598 15.3205 15.1931 15.8241 15.6881C16.3276 16.1832 16.933 16.4307 17.6401 16.4307Z" fill="#0D6A68"/>
</g>
<defs>
<clipPath id="clip0_346_4253">
<rect width="36" height="39" fill="white"/>
</clipPath>
</defs>
</svg>
