<svg width="87" height="94" viewBox="0 0 87 94" fill="none" xmlns="http://www.w3.org/2000/svg">
<path d="M86.3263 39.5787C86.2641 37.5546 86.1499 35.5305 86.0253 33.5168C85.6309 27.3512 85.0289 21.3516 83.0567 16.2862C80.0466 8.51171 75.8428 5.08636 71.2343 3.69545C67.5702 2.58481 63.8439 2.15923 60.1383 1.7648C53.5991 1.07973 47.0599 0.290857 40.5103 0.207819C32.4349 0.10402 24.3595 0.539973 16.2841 1.02783C13.2325 1.21467 10.2535 2.68861 7.46137 5.40813C3.95303 8.83349 1.81481 14.532 1.20241 22.2028C0.102161 35.9769 0.444691 49.6368 2.52063 63.0268C3.72468 70.7702 6.03935 76.6348 9.62035 80.4961C12.7758 83.9111 16.2115 85.3954 19.6887 85.7276C26.1137 86.3504 32.5595 86.6514 38.9845 86.5164C46.1258 86.3607 53.267 85.5511 60.3978 85.0425C61.8821 84.9387 63.3976 85.1774 64.8507 84.6896C66.2831 84.2017 67.4041 84.7104 68.4006 86.7552C68.7431 87.4506 69.096 88.1149 69.4801 88.6962C70.5388 90.3051 71.5456 92.1423 72.7082 93.3672C73.715 94.4363 74.3793 93.5021 74.452 91.1874C74.5454 88.3537 74.4727 85.4992 74.4727 82.5825C75.7494 81.804 76.86 81.2331 77.9395 80.4338C81.0638 78.0984 83.5861 74.2578 84.7071 67.6562C86.2537 58.5635 86.6273 49.1385 86.3056 39.589L86.3263 39.5787Z" fill="#0D6A68"/>
<mask id="mask0_428_5" style="mask-type:alpha" maskUnits="userSpaceOnUse" x="6" y="6" width="76" height="75">
<rect x="6.48242" y="6.10913" width="74.652" height="74.652" fill="#D9D9D9"/>
</mask>
<g mask="url(#mask0_428_5)">
<path d="M43.8101 74.5399C39.5072 74.5399 35.4636 73.7234 31.6791 72.0903C27.8947 70.4573 24.6027 68.2411 21.8033 65.4417C19.0038 62.6422 16.7876 59.3503 15.1546 55.5658C13.5216 51.7814 12.7051 47.7377 12.7051 43.4349C12.7051 39.132 13.5216 35.0883 15.1546 31.3039C16.7876 27.5194 19.0038 24.2275 21.8033 21.4281C24.6027 18.6286 27.8947 16.4124 31.6791 14.7794C35.4636 13.1463 39.5072 12.3298 43.8101 12.3298C48.113 12.3298 52.1566 13.1463 55.9411 14.7794C59.7255 16.4124 63.0174 18.6286 65.8169 21.4281C68.6163 24.2275 70.8326 27.5194 72.4656 31.3039C74.0986 35.0883 74.9151 39.132 74.9151 43.4349C74.9151 47.7377 74.0986 51.7814 72.4656 55.5658C70.8326 59.3503 68.6163 62.6422 65.8169 65.4417C63.0174 68.2411 59.7255 70.4573 55.9411 72.0903C52.1566 73.7234 48.113 74.5399 43.8101 74.5399Z" fill="#F7B11D"/>
<mask id="mask1_428_5" style="mask-type:alpha" maskUnits="userSpaceOnUse" x="20" y="20" width="47" height="47">
<rect x="20.4121" y="20.1924" width="46" height="46" fill="#D9D9D9"/>
</mask>
<g mask="url(#mask1_428_5)">
<path d="M43.4119 64.2756L29.6119 53.9256C29.1328 53.5742 28.7574 53.127 28.4859 52.584C28.2144 52.0409 28.0786 51.4659 28.0786 50.859V27.859C28.0786 26.8048 28.454 25.9024 29.2047 25.1517C29.9553 24.401 30.8578 24.0256 31.9119 24.0256H54.9119C55.9661 24.0256 56.8685 24.401 57.6192 25.1517C58.3699 25.9024 58.7453 26.8048 58.7453 27.859V50.859C58.7453 51.4659 58.6095 52.0409 58.338 52.584C58.0665 53.127 57.6911 53.5742 57.2119 53.9256L43.4119 64.2756ZM41.3994 48.9423L52.2286 38.1131L49.5453 35.334L41.3994 43.4798L37.3744 39.4548L34.5953 42.1381L41.3994 48.9423Z" fill="#0D6A68"/>
</g>
</g>
</svg>
