<svg width="22" height="24" viewBox="0 0 22 24" fill="none" xmlns="http://www.w3.org/2000/svg">
<path d="M21.1157 10.4479C21.1008 9.96118 21.0733 9.47449 21.0434 8.9903C20.9485 7.50777 20.8038 6.06517 20.3296 4.84719C19.6058 2.97781 18.595 2.15418 17.4868 1.81973C16.6058 1.55268 15.7098 1.45035 14.8188 1.35551C13.2465 1.19078 11.6741 1.0011 10.0993 0.981129C8.15752 0.95617 6.21579 1.061 4.27405 1.1783C3.54028 1.22323 2.82399 1.57764 2.15261 2.23155C1.30903 3.05518 0.794896 4.4254 0.647644 6.26983C0.383089 9.58182 0.46545 12.8664 0.964611 16.086C1.25412 17.9479 1.81069 19.358 2.67174 20.2865C3.43047 21.1076 4.25658 21.4645 5.09267 21.5444C6.63758 21.6942 8.18747 21.7665 9.73238 21.7341C11.4495 21.6967 13.1666 21.502 14.8812 21.3797C15.2381 21.3547 15.6025 21.4121 15.9519 21.2948C16.2963 21.1775 16.5659 21.2998 16.8055 21.7915C16.8879 21.9587 16.9727 22.1185 17.0651 22.2582C17.3196 22.6451 17.5617 23.0868 17.8412 23.3814C18.0833 23.6384 18.2431 23.4138 18.2605 22.8572C18.283 22.1759 18.2655 21.4895 18.2655 20.7882C18.5725 20.601 18.8396 20.4637 19.0991 20.2715C19.8504 19.71 20.4569 18.7865 20.7264 17.1991C21.0983 15.0128 21.1881 12.7465 21.1108 10.4504L21.1157 10.4479Z" fill="#F7B11D"/>
<g clip-path="url(#clip0_319_835)">
<path d="M14.3345 9.89641C15.258 10.5589 16.3892 10.9487 17.6111 10.9487V8.58913C17.3798 8.58917 17.1492 8.56498 16.923 8.51688V10.3742C15.7012 10.3742 14.5701 9.98438 13.6464 9.32196V14.1371C13.6464 16.5458 11.7007 18.4984 9.30064 18.4984C8.40513 18.4984 7.57278 18.2267 6.88135 17.7607C7.6705 18.5705 8.77104 19.0728 9.98859 19.0728C12.3888 19.0728 14.3346 17.1203 14.3346 14.7114V9.89641H14.3345ZM15.1834 7.51594C14.7114 6.99851 14.4016 6.32984 14.3345 5.59059V5.28711H13.6825C13.8466 6.22669 14.4064 7.02941 15.1834 7.51594ZM8.39938 15.9123C8.13571 15.5653 7.99322 15.1409 7.99386 14.7045C7.99386 13.6028 8.88383 12.7096 9.98182 12.7096C10.1864 12.7095 10.3898 12.741 10.5848 12.8031V10.3908C10.357 10.3595 10.127 10.3462 9.89705 10.351V12.2286C9.7019 12.1665 9.4984 12.135 9.29372 12.1352C8.19574 12.1352 7.30582 13.0283 7.30582 14.1302C7.30582 14.9092 7.75065 15.5837 8.39938 15.9123Z" fill="#0D6A68"/>
<path d="M13.6463 9.32192C14.57 9.98433 15.7011 10.3741 16.9228 10.3741V8.51683C16.2408 8.37105 15.6371 8.0134 15.1832 7.51594C14.4062 7.02937 13.8464 6.22664 13.6823 5.28711H11.9695V14.7113C11.9656 15.81 11.0772 16.6996 9.98155 16.6996C9.33592 16.6996 8.76234 16.3907 8.39907 15.9123C7.75039 15.5837 7.30556 14.9092 7.30556 14.1302C7.30556 13.0285 8.19548 12.1352 9.29346 12.1352C9.50383 12.1352 9.70659 12.1681 9.89679 12.2287V10.3511C7.5389 10.4 5.64258 12.3335 5.64258 14.7114C5.64258 15.8984 6.1148 16.9745 6.88123 17.7608C7.57266 18.2267 8.40501 18.4984 9.30053 18.4984C11.7006 18.4984 13.6463 16.5458 13.6463 14.1371V9.32192H13.6463Z" fill="#0D6A68"/>
<path d="M16.9229 8.51688V8.01469C16.3079 8.01562 15.705 7.84279 15.1833 7.51594C15.6451 8.02341 16.2533 8.37332 16.9229 8.51688ZM13.6824 5.28716C13.6667 5.19737 13.6547 5.10698 13.6463 5.01625V4.71277H11.2814V14.1371C11.2776 15.2356 10.3892 16.1252 9.29352 16.1252C8.97183 16.1252 8.6681 16.0486 8.39913 15.9124C8.76239 16.3908 9.33597 16.6996 9.98161 16.6996C11.0771 16.6996 11.9657 15.8101 11.9696 14.7114V5.28716H13.6824ZM9.89694 10.3511V9.81652C9.69934 9.78942 9.50011 9.77582 9.30063 9.77592C6.90033 9.77587 4.95459 11.7285 4.95459 14.1371C4.95459 15.6471 5.7193 16.9779 6.88134 17.7607C6.11491 16.9745 5.64268 15.8984 5.64268 14.7114C5.64268 12.3335 7.53895 10.4 9.89694 10.3511Z" fill="#0D6A68"/>
</g>
<defs>
<clipPath id="clip0_319_835">
<rect width="14.9584" height="14.9584" fill="white" transform="translate(3.75781 4.41357)"/>
</clipPath>
</defs>
</svg>
