<svg width="188" height="116" viewBox="0 0 188 116" fill="none" xmlns="http://www.w3.org/2000/svg">
<g clip-path="url(#clip0_185_2865)">
<path d="M75.8113 -161.528L60.6439 -164.984C52.0472 -137.836 49.7965 -108.814 53.7698 -76.2673C56.9956 -49.8241 64.3707 -21.3357 76.3151 10.8272C77.2441 13.3298 78.2002 15.8507 79.1915 18.3877C41.514 15.6875 1.68594 26.8122 -28.8412 48.8386L-18.6655 58.9889C10.6564 37.8334 49.401 27.8808 84.9767 32.3642C97.3246 60.416 114.805 88.6217 144.341 107.766C156.616 115.722 168.828 117.466 177.845 112.556C190.444 105.694 188.949 91.2484 183.841 80.9625C175.873 64.9132 162.42 50.6081 144.942 39.5937C130.498 30.4913 113.982 24.0339 96.7044 20.6903C94.7841 16.0276 92.9938 11.3879 91.2956 6.82179C65.9579 -61.39 61.042 -114.885 75.8113 -161.528ZM103.568 36.1375C133.047 44.4425 157.84 62.9323 169.362 86.1376C172.244 91.9378 173.219 99.2408 169.354 101.344C165.722 103.322 158.739 100.335 153.864 97.1772C130.159 81.8173 114.789 59.3819 103.565 36.1352L103.568 36.1375Z" fill="#F7B11D"/>
</g>
<defs>
<clipPath id="clip0_185_2865">
<rect width="188" height="116" fill="white"/>
</clipPath>
</defs>
</svg>
