<svg width="296" height="191" viewBox="0 0 296 191" fill="none" xmlns="http://www.w3.org/2000/svg">
<g clip-path="url(#clip0_185_2878)">
<path d="M351.132 -57L367 -49.2443C347.701 -20.8646 321.347 4.62184 286.434 28.6616C258.07 48.1949 224.297 66.5126 183.183 84.6636C179.984 86.0761 176.745 87.4849 173.462 88.8823C207.16 112.998 229.193 150.008 232.959 189.499L214.701 190.748C211.082 152.818 188.803 117.531 155.105 96.354C117.654 110.835 75.8213 121.856 32.8535 116.982C14.9971 114.956 3.22987 107.855 0.567273 97.5053C-3.1541 83.0428 12.1201 72.1855 26.331 67.2813C48.5029 59.6278 73.5027 57.2458 98.6231 60.389C119.383 62.9869 139.281 69.2127 156.78 78.5362C162.896 76.0368 168.883 73.4655 174.721 70.8903C261.921 32.3994 317.974 -8.24255 351.132 -57ZM136.105 86.4662C103.72 72.7005 65.3005 70.6025 33.2421 81.6681C25.2275 84.4326 17.3246 89.7684 18.4683 94.203C19.5405 98.3725 28.2029 100.792 35.2927 101.599C69.7724 105.515 104.257 97.7741 136.109 86.4662H136.105Z" fill="#F7B11D"/>
</g>
<defs>
<clipPath id="clip0_185_2878">
<rect width="296" height="191" fill="white"/>
</clipPath>
</defs>
</svg>
