<svg width="323" height="527" viewBox="0 0 323 527" fill="none" xmlns="http://www.w3.org/2000/svg">
<g clip-path="url(#clip0_185_2813)">
<path d="M112.688 -162.94L84.2154 -170.587C68.0774 -110.52 63.8522 -46.3084 71.3111 25.7024C77.3666 84.209 91.2115 147.241 113.634 218.403C115.378 223.939 117.173 229.517 119.034 235.13C48.304 229.156 -26.4626 253.77 -83.7692 302.504L-64.667 324.962C-9.62296 278.155 63.1099 256.134 129.894 266.054C153.074 328.12 185.889 390.526 241.335 432.884C264.377 450.487 287.303 454.346 304.229 443.48C327.882 428.298 325.075 396.337 315.486 373.579C300.528 338.07 275.273 306.419 242.463 282.049C215.348 261.91 184.343 247.623 151.91 240.225C148.305 229.909 144.944 219.643 141.756 209.54C94.191 58.6191 84.9628 -59.7414 112.688 -162.94ZM164.793 274.402C220.132 292.778 266.675 333.687 288.305 385.03C293.714 397.863 295.545 414.021 288.289 418.673C281.471 423.051 268.363 416.441 259.211 409.455C214.712 375.471 185.858 325.832 164.788 274.397L164.793 274.402Z" fill="#F7B11D"/>
</g>
<defs>
<clipPath id="clip0_185_2813">
<rect width="323" height="527" fill="white"/>
</clipPath>
</defs>
</svg>
