<svg width="329" height="527" viewBox="0 0 329 527" fill="none" xmlns="http://www.w3.org/2000/svg">
<g clip-path="url(#clip0_185_2826)">
<path d="M601.803 -40L629 -24.3162C595.923 33.0735 550.756 84.6124 490.919 133.226C442.306 172.726 384.421 209.769 313.956 246.474C308.474 249.33 302.923 252.179 297.295 255.005C355.05 303.772 392.813 378.614 399.268 458.473L367.975 461C361.773 384.297 323.588 312.938 265.834 270.114C201.647 299.399 129.95 321.684 56.3074 311.828C25.7035 307.731 5.53566 293.372 0.972246 272.442C-5.40581 243.196 20.7725 221.24 45.1286 211.323C83.1289 195.846 125.976 191.029 169.03 197.386C204.611 202.639 238.714 215.229 268.705 234.083C279.187 229.029 289.447 223.829 299.454 218.621C448.906 140.785 544.975 58.5979 601.803 -40ZM233.27 250.119C177.766 222.282 111.918 218.039 56.9736 240.416C43.2374 246.007 29.6926 256.797 31.6528 265.765C33.4904 274.196 48.3368 279.09 60.488 280.721C119.583 288.639 178.685 272.986 233.277 250.119H233.27Z" fill="#F7B11D"/>
</g>
<defs>
<clipPath id="clip0_185_2826">
<rect width="329" height="527" fill="white"/>
</clipPath>
</defs>
</svg>
