<svg width="321" height="350" viewBox="0 0 321 350" fill="none" xmlns="http://www.w3.org/2000/svg">
<path d="M320.61 147.254C320.378 139.686 319.95 132.119 319.485 124.59C318.01 101.539 315.759 79.1081 308.384 60.1701C297.128 31.1035 281.408 18.2971 264.175 13.0969C250.473 8.94457 236.539 7.35347 222.682 5.8788C198.229 3.31752 173.777 0.368168 149.285 0.0577095C119.088 -0.330363 88.8903 1.29954 58.6929 3.12348C47.2816 3.82201 36.1419 9.33264 25.7009 19.5001C12.5818 32.3065 4.5862 53.6117 2.29617 82.2903C-1.81813 133.788 -0.537422 184.858 7.22539 234.919C11.7278 263.869 20.3835 285.796 33.7743 300.232C45.5738 312.999 58.4213 318.549 71.424 319.791C95.4499 322.119 119.553 323.245 143.579 322.74C170.283 322.158 196.987 319.131 223.653 317.229C229.203 316.841 234.87 317.734 240.304 315.91C245.66 314.086 249.852 315.988 253.578 323.633C254.859 326.233 256.179 328.716 257.615 330.89C261.574 336.905 265.339 343.774 269.686 348.353C273.451 352.35 275.935 348.857 276.207 340.203C276.556 329.609 276.285 318.937 276.285 308.032C281.059 305.122 285.212 302.987 289.249 299.999C300.932 291.267 310.363 276.909 314.555 252.227C320.339 218.232 321.736 182.995 320.533 147.292L320.61 147.254Z" fill="#F7B11D"/>
<path d="M156.426 144.382C139.969 138.25 123.512 132.08 107.054 125.91L77.1676 114.694C76.3137 114.384 75.421 114.19 74.4894 113.996L73.4802 113.802C72.7428 113.647 72.0054 113.802 71.4232 114.267C70.841 114.733 70.4917 115.432 70.4917 116.169V218.581C70.4917 219.668 71.229 220.638 72.277 220.91L73.0145 221.104C73.3638 221.181 73.7132 221.259 74.0625 221.414L157.163 252.499C157.435 252.615 157.707 252.654 158.017 252.654C158.483 252.654 158.91 252.538 159.298 252.266C159.919 251.878 160.346 251.179 160.424 250.442L160.54 249.433C160.618 248.773 160.657 248.269 160.657 247.764V226.886C160.657 201.39 160.657 175.893 160.734 150.397C160.734 146.555 158.561 145.236 156.426 144.421V144.382ZM116.059 214.972L114.39 214.351C108.879 212.295 103.522 210.277 98.2048 208.22C98.2048 208.22 98.2048 208.142 98.2048 208.026C98.1271 205.891 98.1273 203.796 98.1273 201.506L100.107 202.244C105.541 204.261 110.742 206.163 115.982 208.336C116.098 210.509 116.098 212.683 116.059 215.011V214.972Z" fill="#0D6A68"/>
<path d="M189.263 131.77L195.318 129.48C196.017 129.209 196.716 128.898 197.531 128.471L198.889 127.812C199.743 127.424 200.287 126.531 200.287 125.561C200.287 124.591 199.666 123.737 198.812 123.388L170.477 111.629L170.827 111.474C175.911 109.301 180.685 107.244 185.537 105.342C186.236 105.071 187.517 105.148 188.293 105.497L191.592 106.895C198.618 109.883 205.876 112.948 212.707 116.441C218.257 119.274 223.303 119.429 229.048 116.946C235.064 114.384 241.119 112.134 247.523 109.805C250.24 108.835 252.957 107.826 255.713 106.778C256.606 106.429 257.227 105.614 257.266 104.683C257.343 103.751 256.839 102.82 255.985 102.393L255.131 101.927C254.549 101.617 254.122 101.384 253.695 101.229L244.379 97.736C218.607 88.073 192.873 78.4488 167.062 68.8634C164.81 68.0097 162.132 68.3977 160.347 69.0575C149.906 72.8994 139.504 76.7801 129.102 80.6996C122.581 83.1445 116.06 85.5893 109.539 87.9954C101 91.1776 92.4222 94.321 83.8831 97.4644L72.0449 101.811C71.1133 102.16 70.4536 103.053 70.4536 104.1V104.799C70.4536 105.924 71.2299 106.933 72.3555 107.166L73.0152 107.283C73.2481 107.283 73.481 107.36 73.7139 107.438L93.2763 114.772C115.4 123.077 137.485 131.382 159.648 139.57C160.929 140.036 162.404 140.269 163.879 140.269C165.354 140.269 166.713 140.036 167.955 139.609C175.096 137.125 182.277 134.409 189.186 131.77H189.263Z" fill="#0D6A68"/>
<path d="M257.422 138.717V116.209C257.422 114.889 256.336 113.803 255.016 113.803H254.472C254.007 113.764 253.424 113.725 252.726 113.958L247.952 115.743C239.219 118.964 230.524 122.224 221.869 125.6C219.928 126.376 218.569 128.976 218.531 130.917C218.453 135.341 218.453 139.765 218.453 144.189C218.453 147.604 218.453 150.98 218.414 154.395C218.414 154.667 218.336 155.016 218.259 155.249C212.98 157.344 207.624 159.362 202.073 161.419L200.637 161.962V136.97C200.637 136.194 200.249 135.418 199.589 134.991C198.929 134.526 198.115 134.448 197.377 134.72L190.196 137.436C183.986 139.803 178.009 142.054 171.993 144.189C168.655 145.353 167.257 147.41 167.257 150.98C167.335 174.885 167.335 198.752 167.335 222.657V246.562C167.335 247.3 167.335 248.037 167.412 248.891L167.49 250.094C167.49 250.831 167.917 251.53 168.499 251.956C168.926 252.228 169.392 252.383 169.897 252.383C170.13 252.383 170.362 252.383 170.634 252.267L171.915 251.879C172.769 251.607 173.584 251.374 174.322 251.103L194.039 243.69C213.679 236.317 233.28 228.944 252.959 221.648C256.258 220.406 257.616 218.427 257.616 214.818C257.539 189.438 257.539 164.019 257.578 138.639L257.422 138.717Z" fill="#0D6A68"/>
</svg>
